<svg width="36" height="36" viewBox="0 0 36 36" fill="none" xmlns="http://www.w3.org/2000/svg">
  <path d="M18 0C10.0741 0 3.60001 6.47409 3.60001 14.4C3.60001 24.2177 16.5459 35.0949 17.096 35.5864C17.3482 35.8125 17.6741 35.9256 18 35.9256C18.3259 35.9256 18.6518 35.8125 18.904 35.5864C19.4541 35.0949 32.4 24.2177 32.4 14.4C32.4 6.47409 25.9259 0 18 0ZM18 21.6C14.0294 21.6 10.8 18.3706 10.8 14.4C10.8 10.4294 14.0294 7.2 18 7.2C21.9706 7.2 25.2 10.4294 25.2 14.4C25.2 18.3706 21.9706 21.6 18 21.6Z" fill="#3B82F6"/>
</svg> 